<svg xmlns="http://www.w3.org/2000/svg" width="271.57" height="77.59" viewBox="0 0 271.57 77.59"><title>Asset 1</title><g id="Layer_2" data-name="Layer 2"><g id="ARTE"><path d="M127.52,48c0,6.31-4.2,10.71-10.21,10.71S108,54.94,108,48.4V26h-7.2V49.76c0,9.49,5.88,15.63,15,15.63A14.44,14.44,0,0,0,127.52,60V64.6h7.12V26h-7.12Z" style="fill:#243746"/><path d="M161.53,41.84c-4.5-1.37-8.75-2.66-8.75-5.64,0-2.7,2.53-4.51,6.29-4.51a20.08,20.08,0,0,1,10.46,3.44l.73.47L173.63,30l-.67-.44a26,26,0,0,0-13.75-4.21c-7.9,0-13.41,4.69-13.41,11.55,0,7.6,7.41,9.7,12.83,11.24,4.86,1.36,8.58,2.64,8.58,5.82,0,3-2.72,5-6.79,5a20.73,20.73,0,0,1-12.27-4.54l-.69-.53-3.75,5.29.62.5a26.28,26.28,0,0,0,15.81,5.61c8.36,0,14-4.78,14-12.05C174.12,45.62,166.63,43.37,161.53,41.84Z" style="fill:#243746"/><rect x="184.92" y="26" width="7.19" height="38.6" style="fill:#243746"/><path d="M188.45,19.63h.21a3.88,3.88,0,0,0,3.88-3.88h0a3.88,3.88,0,0,0-3.88-3.88h-.21a3.88,3.88,0,0,0-3.89,3.88h0A3.89,3.89,0,0,0,188.45,19.63Z" style="fill:#243746"/><path d="M224,25.21a14.6,14.6,0,0,0-11.79,5.4V26H205V64.6h7.19v-22c0-6.31,4.2-10.71,10.22-10.71s9.36,3.75,9.36,10.28V64.6h7.19V40.84C238.94,31.35,233.06,25.21,224,25.21Z" style="fill:#243746"/><path d="M271.57,32.55V26H259.86V14.86h-7.19V26h-5.14v6.55h5.14V54c0,7.16,4.1,11.27,11.27,11.27a14.79,14.79,0,0,0,7-1.66l.46-.24V56.76l-1.22.59a10.77,10.77,0,0,1-5,1.2c-3.66,0-5.36-1.68-5.36-5.29V32.55Z" style="fill:#243746"/><path d="M84.53,38.79a14.69,14.69,0,0,0-9.46-26H51.39V31.7h6.94V19.77H75.07a7.78,7.78,0,1,1,0,15.55H42.26V10.43a6.68,6.68,0,0,1-3.47,1,6.74,6.74,0,0,1-3.47-1V30.8C31.51,28.33,25,22,20.82,17a6.75,6.75,0,0,1-5.53,4.19c4.08,4.93,10.57,11.32,14.38,14.09H10.43a6.63,6.63,0,0,1,0,6.94H29.67C25.86,45,19.37,51.43,15.29,56.35a6.78,6.78,0,0,1,5.53,4.2c4.14-5,10.69-11.29,14.5-13.76V67.16a6.58,6.58,0,0,1,6.94,0V42.26H75.07a7.78,7.78,0,0,1,0,15.56H58.33V45.89H51.39V64.76H75.07a14.7,14.7,0,0,0,9.46-26Z" style="fill:#243746"/><path d="M43.42,4.62A4.63,4.63,0,1,1,38.79,0,4.62,4.62,0,0,1,43.42,4.62Z" style="fill:#00afaa"/><path d="M19.14,14.52A4.62,4.62,0,1,1,14.52,9.9,4.62,4.62,0,0,1,19.14,14.52Z" style="fill:#00afaa"/><path d="M43.42,73a4.63,4.63,0,1,0-4.63,4.63A4.62,4.62,0,0,0,43.42,73Z" style="fill:#00afaa"/><path d="M19.14,63.06a4.62,4.62,0,1,0-4.62,4.63A4.62,4.62,0,0,0,19.14,63.06Z" style="fill:#00afaa"/><path d="M9.24,38.79a4.62,4.62,0,1,1-4.62-4.62A4.62,4.62,0,0,1,9.24,38.79Z" style="fill:#00afaa"/></g></g></svg>